<svg width="33" height="33" viewBox="0 0 33 33" fill="none" xmlns="http://www.w3.org/2000/svg">
<path d="M14.3655 22.275L23.9199 12.5813L22.0226 10.6562L14.3655 18.425L10.5031 14.5063L8.60575 16.4312L14.3655 22.275ZM6.77618 28.875C6.0308 28.875 5.39271 28.6057 4.86191 28.0672C4.3311 27.5286 4.0657 26.8813 4.0657 26.125V6.875C4.0657 6.11875 4.3311 5.47135 4.86191 4.93281C5.39271 4.39427 6.0308 4.125 6.77618 4.125H25.7495C26.4949 4.125 27.133 4.39427 27.6638 4.93281C28.1946 5.47135 28.46 6.11875 28.46 6.875V26.125C28.46 26.8813 28.1946 27.5286 27.6638 28.0672C27.133 28.6057 26.4949 28.875 25.7495 28.875H6.77618ZM6.77618 26.125H25.7495V6.875H6.77618V26.125Z" fill="#2B15B6"/>
</svg>
