<svg width="33" height="33" viewBox="0 0 33 33" fill="none" xmlns="http://www.w3.org/2000/svg">
<path d="M25.9366 11.0397C24.799 11.0397 23.8321 10.6416 23.0358 9.84529C22.2395 9.04899 21.8413 8.08206 21.8413 6.94449C21.8413 5.80692 22.2395 4.83999 23.0358 4.04369C23.8321 3.24739 24.799 2.84924 25.9366 2.84924C27.0741 2.84924 28.0411 3.24739 28.8374 4.04369C29.6337 4.83999 30.0318 5.80692 30.0318 6.94449C30.0318 8.08206 29.6337 9.04899 28.8374 9.84529C28.0411 10.6416 27.0741 11.0397 25.9366 11.0397ZM5.46033 27.4207C4.70953 27.4207 4.06681 27.1534 3.53215 26.6187C2.99749 26.0841 2.73016 25.4414 2.73016 24.6906V8.30957C2.73016 7.55878 2.99749 6.91605 3.53215 6.38139C4.06681 5.84674 4.70953 5.57941 5.46033 5.57941H19.2477C19.1567 6.03444 19.1112 6.48946 19.1112 6.94449C19.1112 7.39952 19.1567 7.85454 19.2477 8.30957C19.4069 9.03762 19.6686 9.71447 20.0326 10.3401C20.3966 10.9658 20.8403 11.5175 21.3635 11.9953L16.381 15.135L5.46033 8.30957V11.0397L16.381 17.8651L23.5818 13.3604C23.9686 13.4969 24.3553 13.5993 24.7421 13.6675C25.1289 13.7358 25.527 13.7699 25.9366 13.7699C26.6646 13.7699 27.3813 13.6561 28.0866 13.4286C28.7919 13.2011 29.4403 12.8598 30.0318 12.4048V24.6906C30.0318 25.4414 29.7645 26.0841 29.2298 26.6187C28.6952 27.1534 28.0524 27.4207 27.3016 27.4207H5.46033Z" fill="#2B15B6"/>
</svg>
