<svg width="40" height="32" viewBox="0 0 40 32" fill="none" xmlns="http://www.w3.org/2000/svg">
<path d="M13.3993 0.390457C9.99282 0.809462 7.09525 2.19011 4.72019 4.52554C2.41299 6.79227 0.933662 9.58104 0.30936 12.83C-0.633878 17.7688 0.601153 22.7419 3.72266 26.5197C5.62271 28.8277 8.47278 30.6411 11.3636 31.3829C12.3882 31.6508 13.1279 31.747 14.3629 31.7813C16.2833 31.8431 17.7762 31.6233 19.4727 31.0532C21.6645 30.3114 23.3814 29.2604 24.9964 27.6806C25.5936 27.0899 25.7225 26.925 25.6886 26.8151C25.6682 26.7396 25.105 26.1145 24.44 25.4207L23.2389 24.1706L21.9428 24.1775H20.6535L20.2124 24.4866C19.1877 25.2215 17.973 25.771 16.7584 26.0389C15.754 26.2656 14.1254 26.2656 13.094 26.0389C9.06994 25.1597 6.06379 21.8352 5.50056 17.6314C5.39199 16.8621 5.41235 15.1174 5.52771 14.3549C6.02308 11.0853 7.99098 8.3103 10.8343 6.8747C12.205 6.18094 13.345 5.90618 14.8719 5.90618C16.7787 5.90618 18.4684 6.42822 19.9613 7.46542L20.5245 7.86382L21.9496 7.85695L23.3678 7.85008L24.5078 6.65489C25.1321 5.99548 25.6682 5.38415 25.6954 5.29485C25.7293 5.14374 25.6546 5.04757 25.1186 4.52554C22.8181 2.29314 19.6424 0.775116 16.5208 0.411064C15.9508 0.349245 13.8608 0.328638 13.3993 0.390457Z" fill="white"/>
<path d="M35.3449 2.42372C34.6731 2.61605 34.0624 3.16556 33.8791 3.74255L33.8113 3.94862L32.5966 3.98983C31.9316 4.01044 31.3684 4.03791 31.348 4.04478C31.3277 4.04478 30.7169 4.66298 29.9908 5.40482C29.258 6.15353 28.3419 7.07397 27.9483 7.45176C27.5547 7.82954 26.9847 8.44774 26.6725 8.82553L26.1161 9.51242L22.9471 9.54677C19.8595 9.58111 19.7713 9.58798 19.4591 9.73223C19.0045 9.94517 18.5634 10.3848 18.3802 10.8038L18.2241 11.161L18.2173 16.0379V20.9148L18.4141 21.3475C18.6313 21.8215 18.9977 22.1993 19.432 22.3985C19.6899 22.5152 19.9274 22.529 22.8724 22.529H26.0414L26.6997 23.367C27.0661 23.8341 28.0229 24.8919 28.8304 25.723C29.638 26.5473 30.5744 27.5158 30.9137 27.8661L31.5244 28.5049H32.3795C32.8477 28.5049 33.3702 28.5255 33.5398 28.5461C33.8249 28.5874 33.852 28.608 33.9606 28.8827C34.1031 29.2674 34.5509 29.7757 34.897 29.9611C35.467 30.2496 36.5596 30.1809 37.1432 29.81C37.7675 29.4048 38.1 28.6423 38.0525 27.7287C38.005 26.8014 37.6182 26.2245 36.8106 25.8535C36.4849 25.7024 36.3085 25.6612 35.8946 25.6612C35.0531 25.6681 34.5306 25.9703 34.1166 26.7121L33.9063 27.0831L32.9834 27.0419C32.1216 27.0075 32.0537 26.9938 31.9384 26.8427C31.5448 26.3344 31.0426 25.8123 30.3437 25.1666C29.6447 24.5278 27.9415 22.7351 27.989 22.6801C27.9958 22.6732 28.274 22.632 28.6065 22.5908C29.4887 22.4809 29.8619 22.2268 30.2487 21.4643C30.4387 21.0796 30.5608 20.3996 30.5133 19.9806C30.4794 19.699 30.4862 19.6372 30.5676 19.6647C30.8391 19.7746 32.1012 20.7705 32.8273 21.4643C33.5195 22.1169 33.7027 22.2542 33.8724 22.2542C33.9877 22.2542 34.4492 22.3023 34.9106 22.3641L35.7385 22.4809L35.8267 22.7144C36.0981 23.4906 37.1567 24.102 38.1 24.0264C38.6089 23.9783 39.0025 23.786 39.3893 23.3739C39.8507 22.893 39.9932 22.529 40 21.8764C40 21.1827 39.8439 20.7225 39.4775 20.2966C39.1653 19.9394 38.8736 19.7677 38.351 19.644C37.4146 19.4242 36.2746 19.9463 35.9285 20.7568C35.8606 20.9217 35.7928 21.059 35.786 21.0728C35.7792 21.0865 35.3856 21.0247 34.9106 20.9354L34.0488 20.7843L33.3227 20.0631C32.9223 19.6578 32.4609 19.1701 32.298 18.964C31.9112 18.4901 31.5991 18.3458 30.9612 18.339H30.4794L30.4319 17.8719C30.4116 17.6177 30.3708 17.3224 30.3505 17.2193L30.3166 17.027L32.712 17.0545C34.9038 17.082 35.1142 17.0957 35.182 17.2056C35.6163 17.968 36.4849 18.2153 37.2585 17.8032C38.7514 17.0133 38.161 14.7397 36.4714 14.7465C35.8403 14.7465 35.2295 15.1449 35.1074 15.6395C35.0667 15.8043 35.0463 15.8112 34.6459 15.77C34.422 15.7494 33.3906 15.6807 32.3659 15.6189C31.3412 15.5639 30.4998 15.509 30.493 15.5021C30.4862 15.4952 30.4658 15.2548 30.4387 14.9663L30.3912 14.4443L30.9137 14.4031C31.5855 14.355 31.7009 14.2726 33.0377 12.9194L34.1099 11.8341L34.8156 11.7448C35.2024 11.7036 35.5688 11.6487 35.6299 11.6349C35.7045 11.6143 35.786 11.7105 35.8946 11.9509C36.0913 12.3699 36.5935 12.8713 37.0346 13.0705C37.2789 13.1804 37.4892 13.2148 37.9303 13.2216C38.4393 13.2216 38.5478 13.201 38.8193 13.0362C39.2129 12.8026 39.5725 12.4042 39.8032 11.9371C40.0339 11.4838 40.0611 10.7557 39.8643 10.165C39.6946 9.64293 39.1246 9.06595 38.6089 8.89422C38.161 8.74311 37.3942 8.7225 37.021 8.85301C36.6546 8.98352 36.1592 9.47121 35.9624 9.89021L35.8063 10.2337H34.7885H33.7774L33.1531 10.8793C32.5084 11.5525 31.9045 12.0539 31.1105 12.5897C30.4116 13.0636 30.4183 13.0705 30.3844 12.0333C30.3573 11.264 30.3301 11.106 30.1673 10.7488C29.8144 9.9589 29.4547 9.72536 28.5047 9.6498L27.8736 9.60172L28.5047 8.94917C28.8576 8.59199 29.4887 8.00127 29.9162 7.64408C30.3369 7.28003 30.8594 6.77173 31.0698 6.50385C31.2801 6.23596 31.5584 5.89938 31.6873 5.75514L31.9248 5.49412L32.8816 5.44604L33.8384 5.40482L34.0216 5.77574C34.2592 6.24283 34.3949 6.39394 34.7817 6.59314C35.3653 6.88164 36.2135 6.88164 36.8174 6.59314C37.2857 6.3596 37.815 5.80322 37.9507 5.39795C38.1135 4.91713 38.1 4.2165 37.9235 3.72881C37.5639 2.73969 36.3696 2.13523 35.3449 2.42372ZM28.0976 11.7654C28.5319 12.0608 28.5319 12.0539 28.5319 16.1753C28.5319 20.1386 28.5319 20.1455 28.1926 20.3722C27.8872 20.5714 27.4461 20.6057 24.2907 20.6744C20.8706 20.7431 20.7485 20.7293 20.4295 20.3653C20.1242 20.0081 20.0902 19.5754 20.0699 15.7975C20.0495 11.9784 20.0563 11.9509 20.4906 11.7311C20.7077 11.6212 21.0335 11.6074 24.2975 11.6074H27.8668L28.0976 11.7654Z" fill="white"/>
<path d="M22.2074 13.2363C22.0038 13.2775 21.7256 13.6209 21.6781 13.9025C21.6509 14.0261 21.6442 15.0837 21.6577 16.2513C21.6781 18.1125 21.6917 18.4009 21.7934 18.5932C22.0309 19.0328 22.0106 19.0259 24.2499 19.0259C26.1568 19.0259 26.2993 19.019 26.5707 18.8885C27.0661 18.6413 27.0729 18.6001 27.0729 16.059C27.0729 12.9616 27.2832 13.1813 24.3449 13.1951C23.2524 13.2019 22.2888 13.2225 22.2074 13.2363Z" fill="white"/>
</svg>
