<svg width="33" height="23" viewBox="0 0 33 23" fill="none" xmlns="http://www.w3.org/2000/svg">
<path d="M0 22.5V18.6844C0 17.9052 0.191992 17.1833 0.575975 16.5188C0.959959 15.8542 1.49076 15.35 2.16838 15.0063C2.4846 14.8458 2.78953 14.6969 3.08316 14.5594C3.39938 14.4219 3.7269 14.2958 4.06571 14.1813V22.5H0ZM5.42094 12.875C4.29158 12.875 3.33162 12.474 2.54107 11.6719C1.75051 10.8698 1.35524 9.89583 1.35524 8.75C1.35524 7.60417 1.75051 6.63021 2.54107 5.82812C3.33162 5.02604 4.29158 4.625 5.42094 4.625C6.55031 4.625 7.51027 5.02604 8.30082 5.82812C9.09138 6.63021 9.48665 7.60417 9.48665 8.75C9.48665 9.89583 9.09138 10.8698 8.30082 11.6719C7.51027 12.474 6.55031 12.875 5.42094 12.875ZM5.42094 10.125C5.80493 10.125 6.12115 9.99896 6.36961 9.74688C6.64066 9.47188 6.77618 9.13958 6.77618 8.75C6.77618 8.36042 6.64066 8.03958 6.36961 7.7875C6.12115 7.5125 5.80493 7.375 5.42094 7.375C5.03696 7.375 4.70945 7.5125 4.4384 7.7875C4.18994 8.03958 4.06571 8.36042 4.06571 8.75C4.06571 9.13958 4.18994 9.47188 4.4384 9.74688C4.70945 9.99896 5.03696 10.125 5.42094 10.125ZM5.42094 22.5V18.65C5.42094 17.8708 5.61294 17.1604 5.99692 16.5188C6.40349 15.8542 6.93429 15.35 7.58932 15.0063C8.98973 14.2958 10.4127 13.7688 11.8583 13.425C13.3039 13.0583 14.7721 12.875 16.2628 12.875C17.7536 12.875 19.2218 13.0583 20.6674 13.425C22.1129 13.7688 23.5359 14.2958 24.9363 15.0063C25.5914 15.35 26.1109 15.8542 26.4949 16.5188C26.9014 17.1604 27.1047 17.8708 27.1047 18.65V22.5H5.42094ZM8.13142 19.75H24.3943V18.65C24.3943 18.3979 24.3265 18.1688 24.191 17.9625C24.078 17.7563 23.9199 17.5958 23.7166 17.4812C22.4969 16.8625 21.2659 16.4042 20.0236 16.1063C18.7813 15.7854 17.5277 15.625 16.2628 15.625C14.9979 15.625 13.7444 15.7854 12.5021 16.1063C11.2598 16.4042 10.0287 16.8625 8.80904 17.4812C8.60575 17.5958 8.43635 17.7563 8.30082 17.9625C8.18788 18.1688 8.13142 18.3979 8.13142 18.65V19.75ZM16.2628 11.5C14.7721 11.5 13.4959 10.9615 12.4343 9.88437C11.3727 8.80729 10.8419 7.5125 10.8419 6C10.8419 4.4875 11.3727 3.19271 12.4343 2.11563C13.4959 1.03854 14.7721 0.5 16.2628 0.5C17.7536 0.5 19.0298 1.03854 20.0914 2.11563C21.153 3.19271 21.6838 4.4875 21.6838 6C21.6838 7.5125 21.153 8.80729 20.0914 9.88437C19.0298 10.9615 17.7536 11.5 16.2628 11.5ZM16.2628 8.75C17.0082 8.75 17.6407 8.48646 18.1602 7.95938C18.7023 7.40938 18.9733 6.75625 18.9733 6C18.9733 5.24375 18.7023 4.60208 18.1602 4.075C17.6407 3.525 17.0082 3.25 16.2628 3.25C15.5175 3.25 14.8737 3.525 14.3316 4.075C13.8121 4.60208 13.5524 5.24375 13.5524 6C13.5524 6.75625 13.8121 7.40938 14.3316 7.95938C14.8737 8.48646 15.5175 8.75 16.2628 8.75ZM27.1047 12.875C25.9754 12.875 25.0154 12.474 24.2248 11.6719C23.4343 10.8698 23.039 9.89583 23.039 8.75C23.039 7.60417 23.4343 6.63021 24.2248 5.82812C25.0154 5.02604 25.9754 4.625 27.1047 4.625C28.2341 4.625 29.194 5.02604 29.9846 5.82812C30.7752 6.63021 31.1704 7.60417 31.1704 8.75C31.1704 9.89583 30.7752 10.8698 29.9846 11.6719C29.194 12.474 28.2341 12.875 27.1047 12.875ZM27.1047 10.125C27.4887 10.125 27.8049 9.99896 28.0534 9.74688C28.3244 9.47188 28.46 9.13958 28.46 8.75C28.46 8.36042 28.3244 8.03958 28.0534 7.7875C27.8049 7.5125 27.4887 7.375 27.1047 7.375C26.7207 7.375 26.3932 7.5125 26.1222 7.7875C25.8737 8.03958 25.7495 8.36042 25.7495 8.75C25.7495 9.13958 25.8737 9.47188 26.1222 9.74688C26.3932 9.99896 26.7207 10.125 27.1047 10.125ZM28.46 22.5V14.1813C28.7988 14.2958 29.115 14.4219 29.4086 14.5594C29.7248 14.6969 30.0411 14.8458 30.3573 15.0063C31.0349 15.35 31.5657 15.8542 31.9497 16.5188C32.3337 17.1833 32.5257 17.9052 32.5257 18.6844V22.5H28.46Z" fill="#2B15B6"/>
</svg>
